<svg width="64" height="64" viewBox="0 0 64 64" fill="none" xmlns="http://www.w3.org/2000/svg">
<g clip-path="url(#clip0)">
<path d="M49.2987 20.4452C39.1531 10.2995 22.6457 10.2995 12.5 20.4452C12.0772 20.868 12.0772 21.5554 12.5 21.9782C12.9228 22.401 13.6102 22.401 14.0331 21.9782C23.333 12.6805 38.4658 12.6805 47.7658 21.9782C47.9783 22.1885 48.2558 22.2948 48.5334 22.2948C48.811 22.2948 49.0884 22.1907 49.2988 21.9782C49.7215 21.5553 49.7215 20.868 49.2987 20.4452Z" fill="#484848"/>
<path d="M18.9763 21.4964H13.5554V16.0757C13.5554 15.4772 13.0696 14.9915 12.4712 14.9915C11.8727 14.9915 11.3871 15.4772 11.3871 16.0757V22.5806C11.3871 23.1791 11.8728 23.6648 12.4713 23.6648H18.9763C19.5747 23.6648 20.0605 23.1791 20.0605 22.5806C20.0605 21.9822 19.5747 21.4964 18.9763 21.4964Z" fill="#484848"/>
<path d="M60.3253 37.1844L52.1724 28.2249C50.5571 26.6117 47.9291 26.6117 46.3028 28.2379C45.7868 28.7539 45.4355 29.3719 45.2534 30.0312C43.6315 28.7887 41.2918 28.9123 39.7978 30.4063C39.2839 30.9223 38.9327 31.5403 38.7461 32.1973C37.122 30.9592 34.7846 31.0785 33.2928 32.5746C32.7876 33.0799 32.4407 33.6848 32.252 34.3245L28.4097 30.4821C26.7965 28.8689 24.1685 28.8668 22.5401 30.4951C20.9247 32.1084 20.9247 34.7364 22.5401 36.3518L37.302 51.1137L28.5463 52.4884C26.1806 52.8268 24.3961 54.8823 24.3961 57.2739C24.3961 59.0672 25.8554 60.5264 27.6486 60.5264H48.0938C51.2791 60.5264 54.2736 59.2861 56.5264 57.0333L59.9372 53.6225C62.188 51.3739 63.4261 48.3816 63.4261 45.2007C63.4261 42.2301 62.3246 39.3831 60.3253 37.1844ZM58.4042 52.0895L54.9935 55.5002C53.1504 57.3433 50.7002 58.358 48.0938 58.358H27.6486C27.0502 58.358 26.5644 57.8723 26.5644 57.2738C26.5644 55.9555 27.5488 54.8215 28.8672 54.6328L39.7414 52.9241C40.1447 52.8612 40.4765 52.5772 40.6044 52.1891C40.7302 51.8032 40.6283 51.376 40.3399 51.0876L24.0709 34.8187C23.3012 34.049 23.3012 32.7978 24.0839 32.0151C24.4698 31.6313 24.9751 31.4383 25.4803 31.4383C25.9856 31.4383 26.4907 31.6313 26.8768 32.0151L37.725 42.8633C38.1478 43.2861 38.8352 43.2861 39.258 42.8633C39.4683 42.6507 39.5746 42.3733 39.5746 42.0957C39.5746 41.8181 39.4684 41.5406 39.258 41.3302L34.8281 36.9003C34.0584 36.1306 34.0584 34.8794 34.8411 34.0967C35.6087 33.3291 36.8642 33.3291 37.6318 34.0967L42.0617 38.5266C42.4845 38.9494 43.1719 38.9494 43.5947 38.5266C43.805 38.314 43.9113 38.0366 43.9113 37.759C43.9113 37.4814 43.8051 37.2039 43.6034 37.0023L41.3418 34.7407C40.5721 33.9709 40.5721 32.7198 41.3548 31.937C42.1224 31.1694 43.3779 31.1694 44.1455 31.937L46.4071 34.1986C46.4092 34.2008 46.4092 34.2008 46.4092 34.2008L46.4114 34.2029C46.4135 34.205 46.4135 34.205 46.4135 34.205C46.4156 34.2072 46.4156 34.2072 46.4156 34.2072H46.4178C46.4199 34.2072 46.4199 34.2093 46.4199 34.2093C46.8449 34.6126 47.5149 34.604 47.9312 34.1876C48.354 33.7648 48.354 33.0774 47.9312 32.6546L47.838 32.5614C47.4651 32.1885 47.259 31.6919 47.259 31.165C47.259 30.6381 47.4628 30.1437 47.8489 29.7577C48.6186 28.9902 49.8698 28.9923 50.6048 29.7209L58.7231 38.6436C60.3558 40.4411 61.2579 42.7699 61.2579 45.2006C61.2578 47.8027 60.2451 50.2486 58.4042 52.0895Z" fill="#484848"/>
</g>
<defs>
<clipPath id="clip0">
<rect width="62.5753" height="62.5753" fill="white" transform="translate(0.85144 0.565796)"/>
</clipPath>
</defs>
</svg>
