<svg width="60" height="60" viewBox="0 0 60 60" fill="none" xmlns="http://www.w3.org/2000/svg">
<g filter="url(#filter0_i)">
<path fill-rule="evenodd" clip-rule="evenodd" d="M1.63774 51.0854C-0.195489 52.9187 -0.195489 55.8909 1.63774 57.7241C3.47096 59.5574 6.44321 59.5574 8.27643 57.7241L30.0001 36.0005L51.7238 57.7242C53.557 59.5574 56.5293 59.5574 58.3625 57.7242C60.1957 55.8909 60.1957 52.9187 58.3625 51.0855L36.6388 29.3618L57.6808 8.31977C59.514 6.48654 59.514 3.5143 57.6808 1.68107C55.8476 -0.152153 52.8753 -0.152155 51.0421 1.68107L30.0001 22.7231L8.95812 1.6811C7.1249 -0.152126 4.15265 -0.152125 2.31943 1.6811C0.486204 3.51432 0.486204 6.48657 2.31943 8.31979L23.3614 29.3618L1.63774 51.0854Z" fill="#8B8B8B"/>
</g>
<defs>
<filter id="filter0_i" x="0.262817" y="0.306152" width="63.4746" height="62.7929" filterUnits="userSpaceOnUse" color-interpolation-filters="sRGB">
<feFlood flood-opacity="0" result="BackgroundImageFix"/>
<feBlend mode="normal" in="SourceGraphic" in2="BackgroundImageFix" result="shape"/>
<feColorMatrix in="SourceAlpha" type="matrix" values="0 0 0 0 0 0 0 0 0 0 0 0 0 0 0 0 0 0 127 0" result="hardAlpha"/>
<feOffset dx="4" dy="4"/>
<feGaussianBlur stdDeviation="2"/>
<feComposite in2="hardAlpha" operator="arithmetic" k2="-1" k3="1"/>
<feColorMatrix type="matrix" values="0 0 0 0 0 0 0 0 0 0 0 0 0 0 0 0 0 0 0.25 0"/>
<feBlend mode="normal" in2="shape" result="effect1_innerShadow"/>
</filter>
</defs>
</svg>
