<svg width="64" height="58" viewBox="0 0 64 58" fill="none" xmlns="http://www.w3.org/2000/svg">
<path fill-rule="evenodd" clip-rule="evenodd" d="M61.521 0H54.0265C53.2007 0 52.4712 0.536982 52.2249 1.32552L49.1017 11.3439H1.88703C1.28716 11.3439 0.7226 11.6293 0.367031 12.1126C0.011462 12.5963 -0.0930318 13.2199 0.0854783 13.7927L8.14746 39.6529C8.39321 40.4415 9.12322 40.9785 9.94901 40.9785H42.4282C43.254 40.9785 43.984 40.441 44.2297 39.6529L52.2786 13.8353C52.2878 13.8077 55.4149 3.77435 55.4149 3.77435H61.521C62.5635 3.77435 63.4082 2.92921 63.4082 1.88718C63.4082 0.845141 62.5635 0 61.521 0ZM21.3906 24.274L20.4743 15.1182H31.9029L30.9866 24.274H21.3906ZM30.6093 28.0483L29.693 37.2041H22.6842L21.7684 28.0483H30.6093ZM16.6816 15.1182L17.5979 24.274H7.30667L4.45196 15.1182H16.6816ZM8.48319 28.0483H17.9752L18.8914 37.2041H11.3374L8.48319 28.0483ZM41.0398 37.2041H33.4862L34.402 28.0483H43.894L41.0398 37.2041ZM45.071 24.274H34.7798L35.6961 15.1182H47.9252L45.071 24.274ZM36.7676 44.4043C33.0198 44.4043 29.9702 47.454 29.9702 51.2017C29.9702 54.9499 33.0198 57.9996 36.7676 57.9996C40.5158 57.9996 43.5655 54.9499 43.5655 51.2017C43.5655 47.454 40.5158 44.4043 36.7676 44.4043ZM36.7676 54.2253C35.101 54.2253 33.7445 52.8693 33.7445 51.2022C33.7445 49.5351 35.101 48.1791 36.7676 48.1791C38.4346 48.1791 39.7911 49.5351 39.7911 51.2022C39.7911 52.8693 38.4346 54.2253 36.7676 54.2253ZM8.578 51.2017C8.578 47.454 11.6272 44.4043 15.3754 44.4043C19.1236 44.4043 22.1728 47.454 22.1728 51.2017C22.1728 54.9499 19.1236 57.9996 15.3754 57.9996C11.6272 57.9996 8.578 54.9499 8.578 51.2017ZM12.3519 51.2022C12.3519 52.8693 13.7084 54.2253 15.3754 54.2253C17.0425 54.2253 18.3985 52.8693 18.3985 51.2022C18.3985 49.5351 17.0425 48.1791 15.3754 48.1791C13.7084 48.1791 12.3519 49.5351 12.3519 51.2022Z" fill="#9C9C9C"/>
</svg>
