<svg width="67" height="58" viewBox="0 0 67 58" fill="none" xmlns="http://www.w3.org/2000/svg">
<path d="M65.952 9.11526C65.0533 8.00322 63.7175 7.36555 62.2874 7.36555H11.2194L10.7634 4.09723C10.4404 1.78287 8.43461 0.0374756 6.09761 0.0374756H2.09373C0.93747 0.0374756 0 0.974945 0 2.13121C0 3.28748 0.93747 4.22495 2.09373 4.22495H6.09761C6.35723 4.22495 6.58022 4.41888 6.61594 4.67601L12.2676 45.1805C12.5905 47.495 14.5963 49.2402 16.9333 49.2402H19.2036C18.9712 49.8956 18.8435 50.6 18.8435 51.334C18.8435 54.7974 21.6613 57.6152 25.1247 57.6152C28.5881 57.6152 31.4059 54.7974 31.4059 51.334C31.4059 50.6 31.2782 49.8956 31.0458 49.2402H42.2347C42.0023 49.8956 41.8746 50.6 41.8746 51.334C41.8746 54.7974 44.6923 57.6152 48.1558 57.6152C51.6192 57.6152 54.437 54.7974 54.437 51.334C54.437 50.6 54.3093 49.8956 54.0769 49.2402H58.6246C59.7808 49.2402 60.7183 48.3028 60.7183 47.1465C60.7183 45.9902 59.7808 45.0528 58.6246 45.0528H16.9335C16.6739 45.0528 16.4509 44.8588 16.4151 44.6017L15.8938 40.8653H57.1276C59.3336 40.8653 61.2709 39.2996 61.7344 37.1413L66.8941 13.0638C67.1938 11.6661 66.8505 10.2269 65.952 9.11526ZM27.2186 51.334C27.2186 52.4884 26.2793 53.4277 25.1248 53.4277C23.9704 53.4277 23.0311 52.4884 23.0311 51.334C23.0311 50.1796 23.9704 49.2402 25.1248 49.2402C26.2793 49.2402 27.2186 50.1794 27.2186 51.334ZM50.2496 51.334C50.2496 52.4884 49.3103 53.4277 48.1559 53.4277C47.0015 53.4277 46.0622 52.4884 46.0622 51.334C46.0622 50.1796 47.0015 49.2402 48.1559 49.2402C49.3103 49.2402 50.2496 50.1794 50.2496 51.334ZM62.7996 12.186L57.6401 36.263C57.5886 36.5033 57.3729 36.6777 57.1276 36.6777H15.3094L11.8037 11.5529H62.2873C62.4945 11.5529 62.6235 11.6586 62.6952 11.7473C62.7668 11.8359 62.8429 11.9839 62.7996 12.186Z" fill="#808080"/>
</svg>
