<svg width="12" height="11" viewBox="0 0 12 11" fill="none" xmlns="http://www.w3.org/2000/svg">
<path d="M8.14831 6.44412C9.51404 4.60335 9.05727 2.05441 7.12875 0.751137C5.20022 -0.552137 2.52978 -0.116466 1.16438 1.72462C-0.201015 3.5654 0.255423 6.11402 2.18427 7.4173C3.56077 8.3475 5.38065 8.41912 6.8325 7.60072L9.98711 10.5937C10.3277 10.936 10.8944 10.9497 11.253 10.6246C11.6116 10.2998 11.6259 9.75883 11.2856 9.41658C11.2749 9.40569 11.2644 9.39572 11.253 9.38544L8.14831 6.44412ZM4.65374 6.72315C3.12978 6.72346 1.89423 5.54507 1.89325 4.09045C1.89292 2.63582 3.12749 1.45649 4.65178 1.45587C6.17378 1.45525 7.40868 2.63178 7.41161 4.08453C7.41423 5.53946 6.18031 6.72066 4.65569 6.72315C4.65504 6.72315 4.65472 6.72315 4.65374 6.72315Z" fill="#9C9C9C"/>
</svg>
